<?xml version="1.0" standalone="no"?>
<!DOCTYPE svg PUBLIC "-//W3C//DTD SVG 20010904//EN"
 "http://www.w3.org/TR/2001/REC-SVG-20010904/DTD/svg10.dtd">
<svg version="1.0" xmlns="http://www.w3.org/2000/svg"
 width="300.000000pt" height="300.000000pt" viewBox="0 0 300.000000 300.000000"
 preserveAspectRatio="xMidYMid meet">
<metadata>
Created by potrace 1.10, written by Peter Selinger 2001-2011
</metadata>
<g transform="translate(0.000000,300.000000) scale(0.050000,-0.050000)"
fill="#000000" stroke="none">
<path d="M2915 5850 c-411 -104 -615 -368 -615 -798 0 -143 3 -150 69 -137 31
6 52 27 61 62 15 61 65 123 100 123 13 0 34 23 47 50 57 126 294 120 405 -10
l73 -85 418 95 c500 114 466 88 367 284 -188 377 -508 521 -925 416z m481
-261 c183 -77 255 -213 129 -248 -305 -84 -344 -89 -421 -50 -41 20 -81 34
-90 32 -10 -2 -12 4 -6 14 27 44 -139 92 -354 102 -68 4 123 113 266 152 131
37 386 35 476 -2z"/>
<path d="M3794 5197 c-64 -20 -253 -67 -420 -104 l-304 -67 -18 -104 c-10 -56
-14 -107 -8 -112 13 -14 449 96 696 175 l210 67 -5 78 c-6 105 -17 110 -151
67z"/>
<path d="M2656 5189 c-29 -16 -59 -47 -66 -69 -7 -22 -24 -40 -38 -40 -68 0
-130 -147 -104 -249 23 -91 49 -54 39 54 l-11 105 114 95 c63 52 127 95 143
95 16 0 24 9 17 20 -16 26 -29 24 -94 -11z"/>
<path d="M2790 5170 c-93 -41 -185 -145 -143 -162 18 -6 27 -21 20 -32 -6 -11
8 -10 32 3 24 13 83 36 132 50 99 30 101 29 141 -97 22 -72 25 -75 27 -26 2
99 -92 232 -167 236 -36 2 -36 4 -6 12 54 14 124 -41 171 -138 37 -74 43 -79
43 -35 0 55 -126 220 -167 217 -12 -1 -50 -13 -83 -28z m51 -61 c32 -16 59
-35 59 -41 0 -6 -10 -4 -22 3 -12 8 -28 6 -35 -4 -19 -28 -163 -67 -163 -44 0
87 78 129 161 86z"/>
<path d="M3720 4950 c-137 -47 -344 -107 -460 -132 -152 -33 -221 -58 -250
-90 -106 -118 -303 -157 -413 -82 -107 74 -247 50 -637 -106 -505 -203 -780
-355 -780 -432 0 -37 -16 -40 254 54 334 115 439 116 677 3 298 -141 625 -127
1039 43 1008 415 1334 532 1477 532 192 0 668 165 648 225 -8 25 -38 27 -995
61 l-310 11 -250 -87z m287 -163 c31 -31 -444 -233 -699 -297 -170 -42 -250
-70 -434 -154 -240 -109 -365 -119 -514 -43 -126 65 -132 84 -38 131 85 43
169 44 278 6 153 -54 286 -25 470 100 74 51 177 90 393 149 161 45 314 89 340
100 55 22 184 27 204 8z"/>
<path d="M2554 5007 c-8 -8 -14 -37 -13 -65 l0 -52 26 47 c26 46 26 46 26 -14
0 -34 -8 -56 -18 -50 -11 7 -9 -7 4 -31 12 -23 29 -43 37 -44 8 -1 39 -5 69
-10 148 -25 281 75 176 131 -62 34 -85 26 -57 -19 34 -53 0 -84 -96 -87 -77
-3 -86 8 -95 121 -3 50 -39 93 -59 73z"/>
<path d="M2803 5000 c-119 -28 -171 -160 -63 -160 55 0 71 41 22 54 -34 9 -38
17 -20 38 31 38 97 35 141 -5 44 -39 50 -3 8 39 -16 16 -24 35 -17 42 7 6 9
11 4 10 -4 -1 -38 -9 -75 -18z"/>
<path d="M2508 4910 c5 -44 15 -97 23 -118 12 -28 9 -34 -9 -23 -19 11 -18 4
2 -27 89 -143 447 -121 473 29 5 35 3 34 -27 -6 -47 -65 -76 -55 -41 14 35 67
41 130 11 111 -11 -7 -20 -35 -20 -63 0 -75 -101 -167 -183 -166 l-67 1 60 27
c78 35 147 90 115 90 -14 1 -43 -17 -65 -39 -51 -51 -183 -55 -223 -7 -24 30
-23 31 17 10 24 -13 69 -23 100 -22 l56 1 -60 26 c-79 35 -131 95 -152 176
-17 64 -17 64 -10 -14z"/>
<path d="M2342 4882 c-29 -18 -8 -166 23 -163 8 0 44 1 78 1 l64 0 -44 46
c-23 26 -43 66 -43 90 0 46 -30 56 -78 26z"/>
<path d="M4570 4706 c-202 -46 -1202 -417 -1257 -466 -9 -8 4 -55 29 -103 36
-68 47 -78 53 -47 19 114 27 127 105 158 63 25 154 32 407 32 303 0 333 3 420
47 114 58 116 46 11 -90 -568 -740 -771 -1066 -876 -1404 -77 -250 -36 -293
143 -151 101 80 95 55 -34 -141 -108 -164 -114 -190 -62 -256 3 -3 34 10 71
28 59 30 95 31 328 10 779 -69 1004 52 1026 553 l9 194 -39 -62 c-107 -168
-258 -208 -820 -223 -353 -8 -432 -16 -458 -42 -29 -29 -31 -23 -22 73 16 160
145 398 440 809 323 450 421 600 519 804 69 142 102 295 62 289 -8 -2 -33 -7
-55 -12z"/>
<path d="M2132 4103 c-15 -24 -46 -324 -63 -598 -7 -124 -15 -225 -16 -225 -2
0 -48 14 -103 31 -122 37 -376 41 -488 7 -533 -160 -358 -1138 205 -1138 253
0 371 227 448 860 l15 130 67 -97 c151 -218 214 -672 114 -821 l-39 -57 49 15
c130 39 258 154 309 278 l33 78 56 -98 c238 -417 534 -375 853 121 l38 60 -49
-35 c-305 -212 -641 505 -641 1365 0 67 -2 121 -5 121 -3 0 -37 -9 -75 -20
-130 -38 -329 -57 -430 -41 -55 9 -102 15 -104 13 -14 -12 86 -613 132 -797
53 -211 53 -246 1 -183 -15 17 -90 66 -168 109 l-141 77 13 286 c8 157 20 351
27 431 12 133 -3 184 -38 128z m576 -328 c57 -466 102 -688 176 -875 51 -128
141 -286 209 -367 106 -127 -33 -129 -155 -2 -132 136 -224 193 -297 186 -112
-12 -141 134 -50 252 74 98 78 172 20 461 -75 381 -70 424 43 428 37 2 45 -11
54 -83z m-698 -539 c106 -48 -9 -707 -130 -746 -112 -36 -197 90 -214 319 -26
337 127 526 344 427z m-532 -622 c12 -31 22 -76 21 -100 l0 -44 -40 47 c-34
42 -39 76 -36 280 l3 233 15 -180 c8 -99 25 -205 37 -236z"/>
<path d="M1297 1785 c-37 -41 -108 -140 -157 -219 -76 -122 -99 -144 -145
-145 -60 -1 -73 -41 -26 -80 25 -21 25 -33 -3 -92 -27 -55 -28 -73 -7 -98 44
-52 71 -35 100 62 37 126 82 167 182 167 l82 0 -14 -108 c-12 -96 -9 -111 28
-130 60 -33 63 -30 63 68 0 50 23 195 50 322 61 284 61 276 -1 305 -72 33 -77
31 -152 -52z m73 -195 c-34 -184 -36 -190 -72 -158 -21 19 -54 28 -77 22 -58
-15 -54 -3 61 183 124 202 132 198 88 -47z"/>
<path d="M3305 1834 c-141 -19 -171 -40 -123 -88 14 -14 48 -15 102 -3 112 25
112 20 -1 -136 -298 -409 -292 -534 24 -500 177 20 194 29 145 79 -22 21 -52
24 -125 12 -139 -22 -167 -21 -167 7 0 39 166 314 278 463 95 124 105 206 26
189 -8 -1 -79 -12 -159 -23z"/>
<path d="M1738 1563 c-2 -7 -2 -20 -1 -27 6 -35 -80 -425 -97 -446 -11 -13
-15 -29 -8 -35 15 -15 -72 -215 -94 -215 -37 0 -16 100 34 158 63 76 34 82
-39 9 -89 -89 -58 -219 49 -204 24 4 61 30 81 57 40 55 181 627 164 670 -10
28 -85 56 -89 33z"/>
<path d="M2648 1529 c-52 -52 -52 -52 -81 -10 -34 48 -92 53 -126 13 -19 -24
-16 -27 18 -18 49 13 52 -19 18 -206 -19 -100 -18 -132 2 -157 37 -45 79 -39
67 9 -23 87 75 360 129 360 31 0 29 -109 -6 -272 -15 -73 32 -134 98 -124 47
7 133 142 131 206 0 24 -12 9 -29 -38 -78 -211 -151 -133 -88 94 41 147 -41
236 -133 143z"/>
<path d="M4294 1532 c-48 -51 -48 -51 -84 -12 -42 47 -95 52 -129 12 -19 -24
-16 -27 18 -18 49 13 56 -67 18 -232 -19 -79 -18 -107 2 -131 38 -46 88 -40
75 9 -26 99 73 360 136 360 37 0 37 -36 0 -190 -40 -165 44 -284 129 -182 19
24 16 27 -21 17 -43 -11 -44 -9 -28 107 37 270 -10 375 -116 260z"/>
<path d="M1520 1485 c-1 -41 -10 -115 -22 -164 -24 -105 -12 -172 35 -189 45
-18 101 3 116 42 10 27 7 28 -19 6 -60 -50 -72 4 -39 167 36 172 30 213 -30
213 -34 0 -41 -13 -41 -75z"/>
<path d="M1930 1497 c-39 -47 -49 -76 -40 -113 7 -28 2 -76 -12 -108 -50 -123
66 -212 152 -116 l36 40 28 -40 c37 -53 99 -51 128 5 19 37 18 41 -4 20 -64
-61 -76 22 -30 215 14 61 22 121 17 135 -11 32 -85 33 -85 1 0 -19 -5 -19 -24
0 -42 42 -111 26 -166 -39z m167 -47 c14 -124 -78 -316 -136 -281 -11 7 -21
42 -21 77 0 190 137 369 157 204z"/>
<path d="M2292 1465 c-7 -52 -5 -97 5 -101 9 -3 13 -27 8 -54 -5 -27 -15 -46
-22 -42 -22 14 -21 -97 1 -123 33 -40 74 -30 62 14 -6 22 5 108 23 192 37 166
32 209 -26 209 -30 0 -40 -20 -51 -95z"/>
<path d="M3594 1524 c-48 -53 -94 -174 -94 -249 0 -135 120 -207 185 -111 l29
45 24 -45 c27 -50 86 -58 121 -16 19 24 16 27 -18 18 -51 -13 -53 30 -10 213
17 71 26 140 20 155 -12 33 -65 34 -77 1 -7 -20 -14 -20 -35 0 -39 36 -108 31
-145 -11z m166 -86 c0 -63 -82 -260 -114 -272 -70 -27 -79 152 -14 277 44 87
128 84 128 -5z"/>
<path d="M3937 1470 c-4 -50 2 -101 13 -113 14 -15 12 -25 -4 -31 -13 -5 -18
-23 -11 -41 7 -19 4 -27 -9 -19 -25 16 -24 -82 1 -121 53 -84 84 17 99 325 6
130 -79 130 -89 0z"/>
<path d="M4573 1500 c-50 -59 -87 -172 -65 -195 7 -6 12 3 12 22 0 18 10 33
21 33 22 0 6 -80 -19 -100 -17 -13 -12 -87 6 -117 23 -36 102 -27 142 17 l36
40 28 -40 c37 -53 99 -51 129 5 21 41 21 43 -10 17 -54 -45 -63 -10 -35 144
39 212 38 223 -13 230 -26 4 -45 -4 -45 -19 0 -19 -5 -20 -24 -1 -41 41 -110
26 -163 -36z m165 -16 c38 -71 -51 -324 -113 -324 -43 0 -53 60 -29 176 33
155 100 225 142 148z"/>
<path d="M4933 1466 c-8 -54 -5 -99 6 -105 11 -7 14 -32 8 -56 -6 -25 -17 -41
-24 -37 -22 14 -21 -97 1 -123 33 -40 74 -30 62 15 -6 22 5 107 24 189 38 161
32 211 -27 211 -30 0 -40 -20 -50 -94z"/>
<path d="M5081 1532 c-19 -24 -16 -27 21 -17 48 12 48 10 6 -250 -35 -222 176
-179 221 45 8 41 -3 27 -37 -45 -84 -177 -131 -133 -83 78 41 179 -38 296
-128 189z"/>
<path d="M1153 706 c-6 -6 1 -23 16 -38 34 -34 11 -138 -30 -138 -15 0 -36 29
-46 65 -25 85 -42 82 -70 -14 -37 -122 -71 -127 -54 -9 10 70 8 92 -7 77 -24
-23 -36 -181 -17 -201 20 -20 58 14 84 76 l25 59 33 -52 c62 -94 133 -44 133
96 0 63 -38 108 -67 79z"/>
<path d="M3951 701 c-8 -12 -4 -21 8 -21 27 0 27 -100 0 -140 -24 -36 -79 22
-79 84 0 63 -31 39 -75 -59 l-43 -95 3 84 c4 98 -17 134 -36 61 -36 -144 27
-221 86 -105 l37 72 27 -51 c48 -88 114 -52 134 73 11 70 -35 142 -62 97z"/>
<path d="M2541 647 c-118 -150 -36 -290 90 -154 61 66 46 90 -17 30 -55 -51
-124 -59 -106 -11 7 17 12 36 12 41 0 5 9 4 19 -3 28 -17 101 63 101 110 0 56
-49 50 -99 -13z"/>
<path d="M4325 655 c-89 -95 -93 -215 -7 -215 37 0 136 92 119 110 -6 6 -27
-8 -47 -30 -41 -46 -110 -54 -110 -12 0 15 21 33 46 39 52 13 106 97 85 131
-20 32 -39 27 -86 -23z"/>
<path d="M4807 665 c-49 -39 -127 -162 -127 -200 0 -39 70 -29 111 16 32 35
39 36 54 10 19 -34 75 -42 75 -11 0 11 -10 20 -22 20 -13 0 -19 35 -15 93 8
104 -12 123 -76 72z m53 -35 c0 -41 -139 -190 -139 -150 -1 28 110 180 130
180 5 0 9 -14 9 -30z"/>
<path d="M5222 665 c-12 -19 -21 -24 -21 -10 -3 91 -41 1 -41 -95 0 -67 9
-120 20 -120 11 0 20 29 20 66 0 74 48 154 92 154 17 0 25 9 18 20 -19 31 -66
23 -88 -15z"/>
<path d="M1516 646 c-70 -81 -67 -206 6 -206 49 0 121 113 113 180 -6 62 -74
77 -119 26z m84 -25 c0 -59 -43 -141 -73 -141 -37 0 -34 71 5 131 39 59 68 63
68 10z"/>
<path d="M1873 615 c-43 -158 -2 -217 62 -90 l43 85 1 -64 c2 -91 31 -97 94
-17 l56 69 20 -64 c20 -59 91 -103 91 -55 0 11 -11 19 -25 16 -15 -3 -28 26
-35 73 -13 104 -39 108 -100 17 -48 -73 -49 -73 -56 -25 -13 106 -24 114 -78
50 l-50 -60 12 55 c15 66 -18 75 -35 10z"/>
<path d="M3000 630 c-21 -25 -30 -26 -42 -7 -22 36 -31 20 -47 -88 -9 -62 -6
-95 8 -95 11 0 21 11 21 25 0 14 20 57 44 95 l43 70 17 -79 c17 -79 49 -118
81 -98 10 6 4 21 -13 34 -16 13 -33 54 -36 91 -7 78 -37 98 -76 52z"/>
</g>
</svg>
